<?xml version="1.0" standalone="no"?>
<!DOCTYPE svg PUBLIC "-//W3C//DTD SVG 20010904//EN"
 "http://www.w3.org/TR/2001/REC-SVG-20010904/DTD/svg10.dtd">
<svg version="1.0" xmlns="http://www.w3.org/2000/svg"
 width="652.000000pt" height="334.000000pt" viewBox="0 0 652.000000 334.000000"
 preserveAspectRatio="xMidYMid meet">
<metadata>
Created by potrace 1.16, written by Peter Selinger 2001-2019
</metadata>
<g transform="translate(0.000000,334.000000) scale(0.100000,-0.100000)"
fill="#000000" stroke="none">
<path d="M1454 2359 c-17 -19 -19 -44 -24 -294 -5 -250 -7 -275 -24 -294 l-19
-21 82 0 c81 0 81 0 101 33 18 29 20 51 21 232 l1 200 48 -150 c27 -82 56
-176 65 -207 9 -31 25 -68 36 -82 20 -25 25 -26 124 -26 142 0 135 -14 135
260 0 139 4 210 10 200 5 -8 39 -107 76 -220 42 -131 73 -211 86 -222 15 -14
38 -18 94 -18 43 0 74 4 74 10 0 6 -4 10 -8 10 -14 0 -27 35 -111 307 -98 315
-90 303 -230 303 -144 0 -141 6 -141 -240 0 -133 -3 -191 -10 -184 -6 6 -32
82 -58 170 -76 252 -78 254 -212 254 -86 0 -99 -2 -116 -21z"/>
<path d="M2820 2348 c19 -31 20 -51 20 -293 0 -312 -2 -305 93 -305 l62 0 -3
172 c-3 164 -2 174 18 196 21 22 21 22 0 22 -19 0 -20 6 -20 85 0 89 -15 137
-45 149 -9 3 -45 6 -81 6 l-64 0 20 -32z"/>
<path d="M3948 2316 c-3 -45 -10 -71 -22 -85 l-19 -21 80 0 c103 0 118 13 118
103 l0 62 -76 3 -77 3 -4 -65z"/>
<path d="M2364 2119 c-17 -19 -19 -38 -19 -174 0 -191 2 -195 111 -195 l72 0
-15 30 c-11 24 -14 61 -11 176 3 139 4 147 27 165 l23 19 -84 0 c-74 0 -87 -3
-104 -21z"/>
<path d="M2580 2120 c12 -12 20 -33 20 -55 0 -22 -8 -43 -20 -55 l-20 -20 78
0 c83 0 93 4 111 37 16 32 14 57 -10 87 -19 24 -26 26 -100 26 l-79 0 20 -20z"/>
<path d="M3305 2120 c-15 -16 -21 -52 -31 -171 -9 -102 -18 -159 -29 -175
l-15 -24 69 0 c79 0 98 5 111 30 5 9 14 77 20 151 12 152 17 179 29 179 12 0
25 -38 60 -171 36 -134 37 -146 14 -171 -15 -17 -13 -18 64 -18 65 0 83 3 96
18 10 10 17 26 17 34 0 40 -70 280 -89 307 l-22 31 -138 0 c-126 0 -140 -2
-156 -20z"/>
<path d="M3791 2114 c-12 -15 -21 -32 -21 -38 0 -83 -24 -284 -36 -297 -8 -8
-14 -19 -14 -22 0 -4 33 -7 74 -7 99 0 111 14 120 137 11 157 18 203 27 197 5
-3 9 -70 9 -149 0 -135 1 -145 22 -165 18 -16 35 -20 96 -20 68 0 73 1 61 16
-10 12 -15 62 -19 176 -6 205 0 198 -175 198 -122 0 -124 0 -144 -26z"/>
<path d="M4149 2108 c14 -24 21 -63 26 -148 8 -136 19 -186 45 -200 10 -5 79
-10 153 -10 176 0 168 -8 183 191 8 106 16 156 28 174 l16 25 -73 0 c-108 0
-114 -9 -127 -181 -12 -152 -16 -179 -30 -179 -18 0 -27 42 -34 155 -8 131
-20 181 -46 195 -10 5 -50 10 -89 10 l-70 0 18 -32z"/>
<path d="M4650 2120 c-18 -18 -20 -33 -20 -175 0 -191 2 -195 110 -195 67 0
70 1 60 19 -6 11 -10 87 -10 175 0 143 2 158 20 176 l20 20 -80 0 c-67 0 -83
-3 -100 -20z"/>
<path d="M4863 2122 c21 -23 22 -81 1 -110 l-15 -22 80 0 c71 0 82 2 95 22 22
31 20 84 -4 108 -17 17 -33 20 -97 20 -73 0 -75 -1 -60 -18z"/>
<path d="M2611 1881 c-11 -11 -23 -37 -27 -58 -3 -21 -13 -46 -22 -55 -14 -17
-10 -18 66 -18 91 0 103 8 116 79 3 19 14 43 23 53 15 17 13 18 -60 18 -63 0
-81 -4 -96 -19z"/>
<path d="M3090 1887 c-27 -9 -36 -19 -43 -47 -4 -19 -12 -47 -17 -62 l-8 -28
63 0 c57 0 66 3 84 26 12 15 21 36 21 48 0 12 7 31 15 42 8 10 15 22 15 25 0
11 -95 8 -130 -4z"/>
<path d="M4890 1880 c-11 -11 -20 -28 -20 -37 -1 -10 -7 -35 -14 -55 l-14 -38
73 0 c83 0 88 4 110 78 9 28 23 56 33 61 12 8 -5 10 -65 11 -70 0 -86 -3 -103
-20z"/>
<path d="M1660 1415 l0 -135 75 0 c73 0 75 1 75 24 0 19 -5 24 -22 24 -66 -4
-78 1 -78 32 0 28 2 30 40 30 36 0 40 3 40 25 0 23 -4 25 -40 25 -38 0 -40 2
-40 30 0 29 1 30 50 30 47 0 50 2 50 25 0 24 -2 25 -75 25 l-75 0 0 -135z"/>
<path d="M3360 1415 l0 -135 25 0 c24 0 25 2 25 75 0 68 2 75 20 75 18 0 20
-7 20 -75 0 -73 1 -75 25 -75 25 0 25 1 25 85 0 79 -2 86 -25 101 -14 9 -34
14 -45 11 -17 -4 -20 0 -20 34 0 35 -3 39 -25 39 l-25 0 0 -135z"/>
<path d="M3887 1532 c-10 -10 -17 -26 -17 -35 0 -9 -4 -17 -10 -17 -5 0 -10
-11 -10 -25 0 -14 5 -25 10 -25 6 0 10 -32 10 -75 0 -73 1 -75 25 -75 24 0 25
2 25 75 0 68 2 75 20 75 14 0 20 7 20 21 0 12 -8 23 -20 26 -27 7 -25 22 5 33
14 5 25 16 25 25 0 22 -63 20 -83 -3z"/>
<path d="M3230 1495 c-5 -14 -14 -25 -20 -25 -19 0 -10 -38 10 -43 17 -4 20
-14 20 -64 0 -68 11 -83 57 -83 36 0 47 25 16 37 -26 9 -33 23 -33 66 0 31 4
40 20 44 11 3 20 14 20 25 0 11 -9 22 -20 25 -11 3 -20 14 -20 24 0 29 -38 24
-50 -6z"/>
<path d="M4200 1501 c0 -10 -7 -21 -15 -25 -8 -3 -15 -15 -15 -26 0 -11 7 -20
15 -20 12 0 15 -13 15 -59 0 -68 15 -91 61 -91 22 0 29 5 29 19 0 10 -9 21
-20 24 -17 4 -20 14 -20 55 0 41 3 51 20 55 11 3 20 13 20 22 0 9 -9 19 -20
22 -11 3 -20 14 -20 24 0 14 -7 19 -25 19 -18 0 -25 -5 -25 -19z"/>
<path d="M1850 1470 c0 -5 10 -29 21 -53 l21 -43 -21 -43 c-31 -59 -12 -82 30
-40 20 20 23 20 31 5 5 -9 20 -16 34 -16 l24 0 -20 40 c-25 49 -25 67 0 108
11 18 18 37 15 43 -11 16 -43 9 -50 -11 -3 -11 -9 -20 -13 -20 -4 0 -13 9 -20
20 -12 20 -52 28 -52 10z"/>
<path d="M2028 1469 c-2 -5 -1 -68 2 -141 4 -114 7 -133 22 -136 13 -3 17 6
20 40 3 42 4 43 40 46 26 2 41 10 49 24 14 26 7 144 -9 160 -14 14 -120 20
-124 7z"/>
<path d="M2320 1462 c-22 -18 -25 -28 -25 -87 0 -54 4 -70 20 -81 28 -21 82
-17 106 7 18 18 21 30 17 80 -5 66 -18 86 -64 95 -21 4 -37 0 -54 -14z"/>
<path d="M2714 1471 c-2 -2 -4 -46 -4 -98 0 -92 0 -93 25 -93 23 0 24 3 27 73
3 64 5 72 23 72 18 0 20 -8 23 -72 3 -71 4 -73 28 -73 l26 0 -4 80 c-5 102
-19 120 -90 117 -27 -1 -52 -4 -54 -6z"/>
<path d="M2909 1459 c-14 -14 -19 -34 -19 -80 0 -79 11 -99 55 -99 40 0 53
-16 31 -38 -14 -15 -17 -14 -36 6 -33 35 -61 22 -40 -18 23 -42 79 -50 114
-14 13 12 16 40 16 138 l0 122 -51 1 c-38 1 -56 -4 -70 -18z"/>
<path d="M3560 1460 c-28 -28 -29 -139 -2 -163 40 -36 122 -11 122 36 0 21
-33 22 -50 2 -19 -23 -40 -18 -40 10 0 23 4 25 45 25 44 0 45 1 45 33 0 38 -7
50 -37 66 -32 16 -60 14 -83 -9z"/>
<path d="M3996 1465 c-9 -26 -7 -121 4 -150 12 -32 36 -41 95 -37 l45 4 0 94
c0 55 -4 95 -10 96 -33 4 -35 1 -40 -72 -4 -67 -7 -75 -25 -75 -18 0 -21 8
-25 75 -4 59 -9 75 -21 78 -9 2 -19 -4 -23 -13z"/>
<path d="M4327 1474 c-12 -13 -8 -159 6 -176 7 -10 33 -18 70 -20 l57 -5 0 99
c0 59 -4 98 -10 98 -5 0 -13 1 -17 3 -5 1 -10 -32 -13 -73 -4 -67 -7 -75 -25
-75 -18 0 -21 8 -25 75 -4 57 -9 76 -20 78 -9 1 -19 0 -23 -4z"/>
<path d="M4672 1464 c-19 -13 -22 -24 -22 -84 0 -81 13 -100 69 -100 40 0 71
23 71 53 0 22 -46 23 -54 2 -7 -20 -32 -19 -40 1 -10 26 2 34 50 34 42 0 44 1
44 30 0 37 -39 80 -72 80 -13 0 -34 -7 -46 -16z"/>
</g>
</svg>
